<?xml version="1.0" standalone="no"?>
<!DOCTYPE svg PUBLIC "-//W3C//DTD SVG 20010904//EN"
 "http://www.w3.org/TR/2001/REC-SVG-20010904/DTD/svg10.dtd">
<svg version="1.0" xmlns="http://www.w3.org/2000/svg"
 width="428.000000pt" height="428.000000pt" viewBox="0 0 428.000000 428.000000"
 preserveAspectRatio="xMidYMid meet">
<metadata>
Created by potrace 1.11, written by Peter Selinger 2001-2013
</metadata>
<g transform="translate(0.000000,428.000000) scale(0.100000,-0.100000)"
fill="#000000" stroke="none">
<path d="M1466 3750 c-217 -21 -457 -90 -671 -195 -411 -201 -698 -508 -775
-828 -40 -167 -15 -388 56 -495 l22 -34 -24 -36 c-59 -87 -69 -220 -23 -322
l24 -53 -25 -51 c-35 -71 -36 -207 -2 -280 l22 -50 -22 -45 c-18 -37 -23 -63
-23 -136 0 -108 19 -159 89 -233 66 -71 148 -106 248 -106 66 0 85 5 142 33
43 21 81 49 107 80 l42 48 41 -23 c57 -32 158 -47 280 -42 l103 3 -35 -52
c-22 -33 -36 -69 -39 -98 -6 -44 -5 -45 32 -61 21 -8 69 -18 106 -21 63 -5 69
-8 69 -28 0 -39 22 -47 117 -44 l88 4 110 -56 c191 -98 376 -147 595 -156 275
-12 561 60 749 190 41 28 49 30 128 28 91 -2 113 6 113 44 0 20 6 23 69 28 37
3 85 13 106 21 37 16 38 17 32 61 -3 29 -17 65 -39 98 l-35 52 146 1 c107 0
157 4 188 16 42 15 43 15 58 -8 25 -39 115 -92 185 -110 112 -29 229 5 314 89
65 66 90 126 94 229 4 76 1 94 -21 142 l-25 55 21 43 c18 35 22 61 22 143 0
84 -4 107 -23 147 l-23 46 23 44 c19 37 23 58 23 144 0 94 -2 105 -32 162
l-31 62 30 55 c58 107 73 364 29 505 -53 172 -142 313 -296 465 -198 196 -445
343 -740 440 -357 117 -728 119 -997 5 l-66 -28 -79 33 c-145 63 -382 93 -577
75z m400 -109 c45 -11 111 -32 146 -46 l65 -26 6 -352 c4 -194 4 -414 0 -489
l-6 -137 -41 35 c-163 140 -461 175 -911 109 -192 -28 -252 -44 -341 -87 -168
-82 -267 -216 -281 -380 -6 -75 4 -98 43 -98 30 0 40 21 47 98 3 38 15 84 31
116 31 63 113 144 182 179 56 28 184 70 192 62 13 -13 2 -155 -16 -212 -73
-232 -315 -368 -547 -308 -237 62 -381 282 -345 526 28 193 124 366 300 539
117 116 247 206 420 293 207 105 431 173 650 201 85 10 326 -3 406 -23z m1068
-1 c519 -102 991 -425 1162 -795 154 -334 30 -659 -283 -740 -205 -53 -434 56
-524 250 -34 73 -53 174 -44 232 7 48 6 48 105 15 191 -62 297 -180 316 -350
8 -66 17 -82 50 -82 38 0 47 30 35 113 -29 190 -164 336 -372 402 -42 13 -155
35 -250 49 -458 68 -743 34 -911 -106 l-48 -39 0 490 0 490 78 29 c69 27 174
54 257 66 73 11 324 -3 429 -24z m-1152 -988 c186 -50 280 -142 295 -288 l6
-54 43 0 44 0 0 40 c0 60 37 147 82 192 86 86 220 127 438 135 143 5 405 -14
455 -33 12 -5 15 -25 15 -91 0 -46 5 -104 11 -129 6 -25 10 -47 7 -49 -2 -2
-26 2 -53 11 -141 42 -338 55 -439 29 -183 -48 -379 -227 -482 -441 -19 -40
-39 -76 -45 -79 -18 -12 -49 7 -55 32 -12 47 -142 229 -217 305 -83 84 -172
147 -255 179 -104 42 -313 29 -510 -30 l-63 -19 7 21 c18 55 24 98 24 174 0
96 -14 87 156 108 160 20 436 14 536 -13z m-1483 -592 c46 -23 131 -47 199
-55 l53 -7 -60 -59 c-82 -80 -135 -161 -135 -206 0 -29 7 -42 34 -65 19 -16
49 -34 66 -40 l32 -11 -49 -61 c-63 -78 -87 -137 -69 -170 17 -33 76 -63 162
-85 l73 -18 -1 -70 c0 -81 -29 -141 -88 -187 -169 -128 -406 -14 -406 196 0
64 10 97 46 149 l25 36 -32 52 c-55 88 -53 193 5 280 l34 50 -25 33 c-57 77
-70 175 -32 257 33 73 35 74 86 35 25 -19 62 -43 82 -54z m3823 28 c16 -31 22
-61 23 -108 0 -64 -9 -88 -64 -176 -12 -18 -10 -25 18 -65 45 -64 58 -139 37
-211 -9 -31 -28 -70 -42 -87 l-25 -30 30 -41 c92 -127 47 -300 -99 -376 -51
-27 -162 -25 -215 3 -97 52 -163 179 -139 269 5 18 18 24 82 34 92 15 170 42
201 71 l22 21 26 -23 c33 -31 63 -91 63 -126 0 -36 -41 -122 -69 -147 -42 -38
-15 -84 32 -53 12 8 38 41 57 73 30 51 35 67 35 124 0 53 -5 74 -28 112 -28
49 -80 93 -96 83 -6 -3 -18 14 -29 37 -10 24 -39 68 -64 99 l-46 56 32 11 c17
6 47 24 66 40 27 23 34 36 34 65 0 44 -52 125 -129 201 l-55 54 60 10 c33 6
80 20 105 31 41 18 43 18 33 2 -9 -14 -6 -24 12 -50 31 -41 32 -110 1 -170
-20 -37 -21 -46 -9 -58 38 -37 88 46 88 146 0 66 -26 133 -55 145 -13 5 -7 13
27 40 24 19 46 35 50 35 4 1 18 -18 30 -41z m-1012 -367 c18 -36 12 -115 -13
-152 -65 -97 -217 -88 -267 16 -23 47 -25 78 -9 124 l11 31 134 0 c122 0 134
-2 144 -19z m-851 -77 c187 -99 311 -197 327 -258 4 -16 -1 -40 -13 -63 -15
-31 -36 -48 -123 -96 -65 -36 -126 -62 -160 -69 -87 -16 -293 -5 -372 21 -123
40 -208 116 -208 188 0 65 118 164 332 278 57 30 105 55 107 55 2 0 52 -25
110 -56z m-759 -26 c0 -24 -40 -78 -72 -98 -39 -24 -107 -26 -147 -5 -37 19
-81 71 -81 96 0 18 9 19 150 19 113 0 150 -3 150 -12z m-762 -347 c11 -6 8
-14 -11 -37 l-24 -28 -5 37 c-4 38 9 48 40 28z m2053 -118 c24 -119 -17 -259
-101 -343 -23 -23 -72 -56 -108 -73 -60 -29 -77 -32 -157 -32 -77 0 -98 4
-147 27 -66 30 -124 73 -139 99 -9 17 -7 17 27 3 95 -40 216 -36 311 8 105 49
199 175 210 282 5 49 9 55 41 74 20 11 40 19 43 16 4 -2 13 -30 20 -61z"/>
<path d="M1515 3513 c-281 -33 -455 -85 -685 -204 -200 -104 -375 -242 -494
-391 -79 -99 -166 -264 -173 -331 -5 -45 -5 -47 20 -47 22 0 28 7 43 53 126
385 597 733 1136 838 144 29 363 31 482 5 88 -19 109 -16 104 16 -2 18 -13 26
-53 36 -104 25 -279 37 -380 25z"/>
<path d="M1480 3204 c-469 -43 -863 -204 -1053 -430 -109 -128 -178 -314 -121
-322 19 -3 25 6 43 61 26 77 79 168 139 237 150 173 481 319 851 375 205 31
343 30 564 -1 l49 -7 -4 29 c-3 26 -8 30 -58 41 -56 13 -328 24 -410 17z"/>
<path d="M1220 2913 c-19 -2 -84 -13 -144 -24 -337 -63 -549 -189 -642 -384
-19 -38 -34 -84 -34 -103 0 -58 51 -53 63 7 36 176 233 324 534 400 206 52
531 67 758 35 218 -31 197 -31 193 1 -4 35 -14 38 -180 59 -110 15 -445 20
-548 9z"/>
<path d="M816 2447 c-22 -58 -65 -97 -123 -112 -41 -10 -48 -16 -48 -36 0 -22
4 -24 41 -23 87 1 185 91 188 172 1 30 -3 38 -20 40 -17 2 -24 -6 -38 -41z"/>
<path d="M2483 3509 c-121 -14 -178 -32 -181 -57 -5 -32 16 -36 105 -18 225
44 450 24 717 -65 242 -80 463 -210 631 -371 141 -135 216 -244 269 -393 17
-46 27 -61 44 -63 32 -5 37 19 17 80 -108 332 -489 659 -941 807 -238 78 -455
104 -661 80z"/>
<path d="M2442 3200 c-117 -15 -137 -23 -137 -51 0 -28 5 -29 189 -8 288 31
713 -49 987 -187 129 -64 193 -110 269 -191 76 -79 113 -140 150 -238 20 -55
30 -71 48 -73 33 -5 36 20 13 91 -45 134 -158 281 -286 372 -172 122 -461 228
-740 270 -124 19 -396 27 -493 15z"/>
<path d="M2480 2905 c-140 -19 -180 -32 -180 -56 0 -30 21 -32 132 -12 83 14
154 18 358 18 224 0 268 -3 366 -22 370 -75 571 -209 635 -422 14 -48 33 -61
56 -39 12 13 13 22 3 59 -67 246 -330 410 -761 473 -131 20 -471 20 -609 1z"/>
<path d="M3374 2475 c-11 -28 25 -102 71 -144 66 -61 160 -80 160 -33 0 19
-10 27 -55 42 -60 20 -102 60 -117 113 -10 36 -49 50 -59 22z"/>
<path d="M1310 2579 c-79 -11 -107 -26 -96 -55 5 -14 15 -15 54 -10 261 35
441 3 589 -105 71 -52 86 -55 91 -22 7 46 -147 143 -283 178 -76 20 -257 27
-355 14z"/>
<path d="M2660 2584 c-133 -18 -260 -70 -336 -137 -42 -37 -55 -69 -34 -82 6
-4 21 0 33 9 184 136 348 177 582 146 73 -10 99 -10 108 -1 19 19 -5 45 -49
53 -52 10 -260 17 -304 12z"/>
<path d="M227 2042 c-26 -28 -47 -88 -47 -130 0 -72 43 -162 77 -162 24 0 26
29 4 80 -27 62 -27 102 0 156 31 62 7 101 -34 56z"/>
<path d="M216 1700 c-30 -37 -42 -102 -27 -158 15 -54 50 -96 74 -87 22 9 22
22 -3 70 -25 50 -25 78 1 132 17 35 19 46 9 58 -18 21 -25 19 -54 -15z"/>
<path d="M234 1408 c-97 -86 -99 -233 -4 -341 35 -40 51 -45 70 -23 9 12 4 25
-28 68 -73 97 -73 170 -1 249 43 48 44 50 27 67 -17 17 -23 16 -64 -20z"/>
<path d="M3987 1723 c-12 -11 -7 -47 8 -67 19 -25 19 -93 0 -130 -27 -52 -15
-87 24 -67 30 17 54 92 49 154 -6 75 -53 138 -81 110z"/>
<path d="M1974 1466 c-76 -17 -116 -38 -143 -72 -28 -35 -26 -50 7 -84 95 -94
462 -105 593 -17 19 12 38 35 44 51 9 25 6 31 -27 61 -20 19 -60 41 -90 51
-72 23 -300 29 -384 10z"/>
</g>
</svg>
