<?xml version="1.0" standalone="no"?>
<!DOCTYPE svg PUBLIC "-//W3C//DTD SVG 20010904//EN"
 "http://www.w3.org/TR/2001/REC-SVG-20010904/DTD/svg10.dtd">
<svg version="1.0" xmlns="http://www.w3.org/2000/svg"
 width="504.000000pt" height="504.000000pt" viewBox="0 0 504.000000 504.000000"
 preserveAspectRatio="xMidYMid meet">
<metadata>
Created by potrace 1.11, written by Peter Selinger 2001-2013
</metadata>
<g transform="translate(0.000000,504.000000) scale(0.100000,-0.100000)"
fill="#000000" stroke="none">
<path d="M2390 4563 c-575 -19 -1049 -172 -1405 -455 -66 -52 -94 -68 -159
-86 -204 -59 -433 -198 -597 -361 -164 -164 -219 -272 -219 -429 0 -230 135
-481 368 -682 39 -35 72 -69 72 -76 0 -7 -44 -57 -98 -111 -107 -108 -162
-195 -162 -258 0 -47 45 -93 124 -125 l55 -23 -53 -59 c-64 -70 -116 -164
-116 -208 0 -83 172 -152 417 -167 57 -3 103 -8 103 -10 0 -3 -20 -28 -45 -56
-79 -90 -118 -182 -99 -232 9 -22 71 -52 146 -70 83 -20 278 -29 353 -17 33 5
62 8 64 6 2 -2 -9 -18 -23 -35 -41 -49 -86 -144 -86 -183 0 -57 46 -78 193
-91 77 -7 77 -7 77 -36 0 -51 33 -63 162 -57 l112 6 87 -49 c204 -116 434
-189 694 -220 124 -15 406 -6 530 15 206 37 416 117 570 219 l70 45 100 -4
c124 -6 151 4 149 58 l-1 35 91 5 c62 3 106 12 139 26 43 19 47 24 47 57 0 37
-40 126 -84 184 -14 19 -24 36 -23 38 2 1 43 -2 93 -8 100 -11 267 1 351 26
72 21 117 55 121 89 5 38 -45 138 -104 206 l-47 55 121 12 c256 25 402 87 402
170 0 38 -56 135 -116 201 l-53 60 64 31 c75 37 115 80 115 123 0 69 -132 247
-247 332 l-39 29 112 111 c119 119 171 189 235 317 89 178 104 359 41 493 -87
187 -275 366 -522 499 -93 50 -244 111 -301 122 -21 4 -59 25 -90 52 -138 115
-323 224 -504 296 -264 106 -526 159 -872 177 -104 5 -197 11 -208 13 -11 2
-58 2 -105 0z m517 -298 c650 -77 1193 -365 1236 -658 5 -31 3 -38 -9 -33 -97
37 -417 50 -559 22 -94 -19 -245 -65 -245 -76 0 -4 31 -10 69 -13 193 -16 446
-147 637 -330 171 -163 267 -352 236 -461 l-8 -29 -21 36 c-84 141 -504 289
-828 291 -199 1 -322 -42 -482 -169 -136 -107 -290 -308 -348 -452 -27 -66
-54 -87 -92 -70 -13 6 -26 22 -30 36 -8 33 -68 133 -139 232 -166 231 -369
383 -564 425 -279 59 -879 -120 -966 -288 -16 -30 -18 -31 -25 -13 -23 59 3
166 67 277 47 81 234 268 334 335 157 105 340 179 473 190 37 3 67 9 67 13 0
10 -197 69 -275 81 -141 22 -441 7 -530 -27 -15 -6 -16 -2 -10 37 29 175 225
345 542 473 238 95 517 158 833 185 136 12 474 5 637 -14z m-2241 -662 c-50
-100 -102 -270 -127 -418 -7 -38 -15 -158 -18 -265 l-6 -195 -76 75 c-168 165
-214 370 -125 556 40 85 120 172 199 219 47 27 154 74 170 75 4 0 -3 -21 -17
-47z m3844 -2 c101 -48 208 -152 250 -243 57 -122 56 -268 -3 -392 -33 -70
-119 -175 -178 -217 l-29 -21 6 84 c16 221 -44 557 -136 764 -17 36 -30 68
-30 71 0 8 42 -8 120 -46z m-730 -1501 c18 -34 23 -114 10 -155 -29 -88 -126
-153 -214 -143 -108 12 -177 85 -184 192 -3 45 0 72 12 94 l17 32 174 0 c165
0 175 -1 185 -20z m-1131 -91 c219 -116 399 -248 437 -321 19 -37 18 -74 -6
-124 -19 -38 -34 -49 -159 -118 -76 -42 -163 -81 -192 -88 -33 -8 -118 -13
-214 -12 -132 1 -174 5 -240 23 -240 65 -372 201 -311 319 21 40 110 121 201
182 65 44 348 199 364 200 2 0 56 -28 120 -61z m-975 -74 c-9 -26 -31 -58 -54
-79 -102 -92 -259 -65 -320 55 -37 72 -44 69 184 69 l205 0 -15 -45z m1680
-542 c85 -263 -84 -560 -354 -622 -58 -13 -172 -13 -230 0 -78 18 -169 70
-232 132 -59 60 -70 81 -26 54 89 -56 282 -70 391 -28 179 70 305 226 323 400
6 55 8 58 53 84 25 14 49 27 53 27 3 0 13 -21 22 -47z"/>
<path d="M2365 1770 c-159 -25 -275 -88 -275 -149 0 -177 669 -222 835 -57 47
47 23 111 -58 152 -92 48 -357 76 -502 54z"/>
</g>
</svg>
