<?xml version="1.0" standalone="no"?>
<!DOCTYPE svg PUBLIC "-//W3C//DTD SVG 20010904//EN"
 "http://www.w3.org/TR/2001/REC-SVG-20010904/DTD/svg10.dtd">
<svg version="1.0" xmlns="http://www.w3.org/2000/svg"
 width="428.000000pt" height="428.000000pt" viewBox="0 0 428.000000 428.000000"
 preserveAspectRatio="xMidYMid meet">
<metadata>
Created by potrace 1.11, written by Peter Selinger 2001-2013
</metadata>
<g transform="translate(0.000000,428.000000) scale(0.100000,-0.100000)"
fill="#000000" stroke="none">
<path d="M1895 3834 c-290 -30 -525 -91 -730 -189 -99 -47 -252 -144 -312
-198 -25 -23 -63 -41 -113 -56 -179 -54 -368 -168 -506 -307 -75 -74 -100
-108 -135 -178 -40 -82 -43 -93 -43 -169 0 -86 26 -193 66 -272 52 -102 147
-221 236 -298 31 -26 60 -53 64 -61 6 -10 -15 -36 -67 -87 -79 -77 -130 -146
-145 -199 -14 -48 8 -81 79 -119 l60 -32 -46 -57 c-55 -68 -97 -154 -88 -182
18 -58 151 -103 372 -126 l63 -6 -40 -45 c-52 -60 -94 -145 -86 -177 8 -31 42
-53 113 -71 77 -20 234 -29 305 -18 32 6 55 7 53 3 -2 -4 -20 -30 -39 -59 -38
-56 -60 -119 -51 -144 4 -8 18 -20 32 -26 23 -11 139 -30 185 -31 11 0 15 -6
11 -20 -12 -47 56 -69 162 -51 55 9 63 7 96 -14 118 -76 315 -151 492 -187
158 -32 453 -32 604 0 177 38 320 95 437 175 58 39 60 39 125 33 36 -3 83 -1
104 5 33 9 37 13 37 43 l0 34 83 4 c103 4 141 21 145 65 3 34 -23 95 -65 151
-14 18 -23 35 -22 36 2 2 37 -1 78 -7 125 -17 323 15 373 60 10 9 18 30 18 48
0 33 -54 131 -97 177 l-26 27 24 5 c13 3 59 7 102 10 126 9 247 47 291 91 37
37 9 111 -82 223 -19 23 -33 44 -31 45 2 1 20 10 39 19 20 8 51 28 69 44 30
25 33 32 28 70 -6 57 -63 140 -157 226 l-77 72 63 53 c74 63 172 189 218 282
56 112 70 166 71 271 0 91 -2 100 -37 170 -68 138 -196 264 -377 371 -88 53
-215 109 -291 129 -24 7 -65 29 -90 50 -238 198 -582 332 -958 375 -127 14
-512 27 -587 19z m635 -249 c522 -80 930 -304 967 -532 l6 -36 -44 7 c-123 21
-172 26 -254 25 -105 0 -217 -18 -312 -50 -77 -26 -83 -21 66 -53 306 -67 649
-387 651 -607 0 -58 -9 -67 -31 -29 -37 60 -152 125 -319 178 -218 69 -447 81
-582 29 -179 -69 -346 -232 -457 -448 -44 -85 -51 -94 -76 -94 -24 0 -33 8
-59 60 -104 201 -293 400 -449 473 -96 46 -155 56 -281 49 -279 -16 -573 -130
-647 -251 l-17 -29 -7 44 c-24 172 197 434 480 570 100 48 201 79 263 79 79 0
0 37 -153 71 -80 18 -319 16 -412 -3 -55 -11 -73 -12 -73 -3 0 35 33 112 69
159 137 182 537 348 951 395 52 6 109 13 125 15 71 10 495 -3 595 -19z m-1913
-517 c-99 -219 -137 -398 -137 -635 0 -62 -4 -113 -8 -113 -17 0 -129 126
-151 168 -97 191 -42 397 137 515 90 59 171 92 159 65z m3193 -31 c137 -67
227 -193 237 -331 10 -128 -35 -234 -142 -340 l-60 -59 -7 184 c-8 214 -32
336 -96 493 -46 111 -48 110 68 53z m-600 -912 c289 -115 371 -476 159 -700
-167 -176 -451 -176 -618 0 -223 236 -119 623 191 710 68 19 207 14 268 -10z
m-968 -406 c183 -92 340 -206 373 -270 20 -38 19 -78 -3 -114 -22 -36 -222
-148 -292 -164 -79 -18 -287 -13 -373 8 -195 50 -308 161 -267 261 15 36 74
92 158 148 76 52 292 172 310 172 7 0 49 -18 94 -41z m1411 -20 c29 -47 -32
-101 -73 -64 -23 20 -25 37 -9 66 13 24 66 23 82 -2z m-2203 -24 c0 -29 -29
-74 -66 -101 -51 -39 -133 -44 -189 -12 -37 22 -84 86 -85 116 0 9 41 12 170
12 147 0 170 -2 170 -15z m2404 -51 c19 -18 21 -55 4 -72 -7 -7 -24 -12 -38
-12 -48 0 -67 45 -33 82 20 22 46 23 67 2z m162 -129 c11 -16 11 -25 1 -45
-18 -36 -61 -39 -83 -6 -15 24 -15 28 0 52 21 30 62 30 82 -1z m-1168 -311 c8
-30 11 -81 9 -131 -10 -175 -117 -311 -288 -364 -146 -45 -300 -6 -409 106
-24 25 -42 45 -40 45 3 0 30 -10 60 -22 43 -17 76 -22 150 -22 134 0 192 24
286 118 76 76 110 142 121 236 5 39 10 49 42 67 20 12 41 21 46 19 6 -1 16
-25 23 -52z"/>
<path d="M2960 2095 c-234 -66 -354 -325 -250 -541 73 -150 252 -243 412 -214
166 30 289 154 318 321 22 125 -16 236 -115 335 -44 45 -75 67 -120 83 -78 29
-174 35 -245 16z m231 -61 c69 -31 140 -102 172 -172 33 -72 31 -207 -4 -282
-33 -70 -99 -136 -169 -169 -47 -22 -69 -26 -145 -26 -108 0 -159 20 -233 89
-138 129 -144 351 -13 485 26 27 63 57 82 67 94 49 211 52 310 8z"/>
<path d="M1975 1505 c-117 -25 -185 -69 -185 -119 0 -83 237 -150 445 -127
150 17 243 54 267 106 24 54 -54 113 -184 139 -92 19 -259 20 -343 1z"/>
<path d="M4042 1338 c-28 -28 -3 -88 37 -88 23 0 51 31 51 56 0 27 -19 44 -50
44 -14 0 -31 -5 -38 -12z"/>
<path d="M4041 1163 c-21 -14 -27 -48 -13 -69 21 -31 75 -22 87 16 14 44 -36
80 -74 53z"/>
<path d="M3931 1016 c-16 -19 -10 -66 10 -79 23 -14 67 0 74 24 15 47 -54 92
-84 55z"/>
<path d="M3674 955 c-20 -31 -10 -63 23 -71 35 -9 57 7 61 42 7 52 -55 74 -84
29z"/>
</g>
</svg>
