<?xml version="1.0" standalone="no"?>
<!DOCTYPE svg PUBLIC "-//W3C//DTD SVG 20010904//EN"
 "http://www.w3.org/TR/2001/REC-SVG-20010904/DTD/svg10.dtd">
<svg version="1.0" xmlns="http://www.w3.org/2000/svg"
 width="428.000000pt" height="428.000000pt" viewBox="0 0 428.000000 428.000000"
 preserveAspectRatio="xMidYMid meet">
<metadata>
Created by potrace 1.11, written by Peter Selinger 2001-2013
</metadata>
<g transform="translate(0.000000,428.000000) scale(0.100000,-0.100000)"
fill="#000000" stroke="none">
<path d="M1980 4120 c-227 -29 -431 -121 -599 -268 -113 -100 -225 -256 -282
-395 -22 -54 -29 -61 -104 -107 -44 -27 -113 -75 -153 -107 -53 -43 -89 -63
-136 -77 -301 -86 -611 -338 -688 -560 -66 -192 70 -513 297 -697 36 -29 65
-57 65 -62 0 -5 -38 -47 -84 -93 -59 -58 -94 -103 -116 -148 -45 -90 -31 -125
65 -173 28 -14 52 -27 54 -29 2 -2 -17 -26 -42 -54 -48 -53 -97 -141 -97 -173
0 -29 50 -72 113 -95 70 -27 210 -52 284 -52 l55 0 -42 -47 c-51 -59 -90 -132
-90 -172 0 -69 113 -106 326 -106 l151 0 -22 -30 c-61 -82 -81 -158 -47 -187
24 -23 88 -38 154 -38 57 0 57 0 60 -32 4 -47 55 -63 155 -50 l73 10 77 -44
c154 -88 329 -148 523 -179 111 -17 354 -20 466 -4 189 26 376 91 513 177 l86
54 87 -1 c102 -2 128 8 128 48 0 28 0 28 78 33 97 7 149 28 158 62 6 25 -34
122 -70 171 -15 20 -13 20 137 21 134 0 160 3 221 25 46 16 76 33 89 51 20 26
20 28 2 74 -10 25 -39 74 -65 109 l-47 62 88 7 c198 15 349 78 349 145 -1 40
-32 101 -88 168 l-51 61 39 16 c60 24 110 73 110 107 0 55 -49 131 -146 227
l-94 93 38 32 c265 226 384 538 284 751 -98 210 -375 425 -657 511 -57 18 -94
37 -130 66 -65 54 -193 138 -271 177 -58 29 -63 35 -97 107 -125 262 -362 473
-635 564 -141 48 -336 69 -472 51z m501 -656 c42 -43 49 -97 17 -144 -40 -60
-41 -60 -401 -60 -284 0 -334 2 -363 16 -60 28 -81 102 -48 165 29 57 45 59
421 56 l343 -2 31 -31z m782 -351 c129 -78 239 -207 254 -296 l5 -34 -73 15
c-94 19 -334 21 -414 4 -33 -7 -96 -25 -140 -40 l-80 -26 55 -9 c30 -5 93 -20
140 -34 310 -92 619 -391 620 -600 0 -60 -8 -66 -31 -25 -35 63 -212 151 -394
197 -206 53 -380 57 -509 14 -184 -61 -378 -249 -487 -474 -58 -117 -79 -121
-130 -22 -54 107 -130 209 -234 312 -102 102 -166 147 -277 193 -58 24 -74 27
-193 26 -190 -2 -391 -51 -555 -135 -71 -36 -150 -100 -150 -120 0 -5 -4 -9
-10 -9 -5 0 -10 20 -10 45 0 220 340 541 652 615 46 11 101 23 123 26 50 7 38
15 -77 48 -107 31 -271 50 -363 41 -73 -7 -177 -22 -207 -31 -28 -8 -23 34 13
104 31 62 132 167 198 205 l31 18 0 -45 0 -46 1085 0 1085 0 0 60 c0 33 3 60
6 60 4 0 34 -17 67 -37z m-2718 -350 c-70 -169 -96 -294 -104 -517 l-6 -178
-49 43 c-214 189 -203 489 24 648 48 34 138 78 162 80 3 1 -9 -34 -27 -76z
m3293 35 c134 -67 229 -198 240 -334 10 -124 -48 -257 -154 -354 l-49 -45 -6
180 c-8 232 -47 413 -121 558 l-19 39 23 -7 c13 -3 51 -20 86 -37z m-620
-1303 c25 -76 -14 -162 -90 -201 -44 -23 -134 -15 -176 15 -61 43 -86 126 -61
200 l11 32 152 -3 151 -3 13 -40z m-969 -46 c212 -113 361 -230 377 -295 4
-16 1 -45 -7 -68 -13 -38 -23 -46 -134 -108 -143 -79 -191 -92 -350 -91 -269
2 -475 110 -475 248 0 71 129 178 364 301 67 35 123 64 125 64 2 0 47 -23 100
-51z m-819 -31 c0 -23 -45 -91 -73 -112 -18 -14 -47 -21 -90 -24 -53 -3 -67 0
-97 20 -40 27 -80 82 -80 109 0 18 11 19 170 19 129 0 170 -3 170 -12z m1419
-495 c21 -80 22 -129 7 -202 -50 -241 -290 -384 -524 -312 -72 22 -181 92
-201 130 -11 19 -10 19 36 -2 41 -19 65 -22 163 -22 104 0 121 3 173 27 121
57 227 197 242 323 6 47 12 57 39 75 44 28 54 25 65 -17z"/>
<path d="M2002 1249 c-125 -18 -232 -77 -232 -127 0 -34 48 -80 103 -100 236
-89 637 -27 637 98 0 98 -262 164 -508 129z"/>
</g>
</svg>
